<mxfile modified="2021-04-25T06:10:44.655Z" host="app.diagrams.net" agent="5.0 (Windows NT 10.0; Win64; x64) AppleWebKit/537.36 (KHTML, like Gecko) Chrome/88.0.4324.104 Safari/537.36" etag="3G_L1YNvIe4b2xkmDUNB" version="14.6.0" type="github">
  <diagram id="l8hXMBHkgcEJcSW0mbfh" name="Page-1">
    <mxGraphModel dx="1422" dy="794" grid="1" gridSize="10" guides="1" tooltips="1" connect="1" arrows="1" fold="1" page="1" pageScale="1" pageWidth="1169" pageHeight="827" math="0" shadow="0">
      <root>
        <mxCell id="0" />
        <mxCell id="1" parent="0" />
        <mxCell id="leUprxX4UK8Za33vor6V-42" value="" style="rounded=1;whiteSpace=wrap;html=1;fontSize=12;fillColor=none;" vertex="1" parent="1">
          <mxGeometry x="140" y="400" width="650" height="400" as="geometry" />
        </mxCell>
        <mxCell id="leUprxX4UK8Za33vor6V-41" value="" style="rounded=1;whiteSpace=wrap;html=1;fontSize=12;fillColor=none;" vertex="1" parent="1">
          <mxGeometry x="492" y="20" width="628" height="340" as="geometry" />
        </mxCell>
        <mxCell id="leUprxX4UK8Za33vor6V-5" style="edgeStyle=orthogonalEdgeStyle;rounded=0;orthogonalLoop=1;jettySize=auto;html=1;entryX=0;entryY=0;entryDx=0;entryDy=0;startArrow=classic;startFill=1;strokeWidth=3;" edge="1" parent="1" source="8--HhbSZYtI3ddgJnD71-4" target="leUprxX4UK8Za33vor6V-2">
          <mxGeometry relative="1" as="geometry" />
        </mxCell>
        <mxCell id="leUprxX4UK8Za33vor6V-7" value="Channel 1" style="edgeLabel;html=1;align=center;verticalAlign=middle;resizable=0;points=[];fontSize=12;" vertex="1" connectable="0" parent="leUprxX4UK8Za33vor6V-5">
          <mxGeometry x="-0.1016" y="-2" relative="1" as="geometry">
            <mxPoint x="-63" y="6" as="offset" />
          </mxGeometry>
        </mxCell>
        <mxCell id="8--HhbSZYtI3ddgJnD71-4" value="Dispatch 1" style="shape=image;verticalLabelPosition=bottom;verticalAlign=top;imageAspect=0;aspect=fixed;image=data:image/svg+xml,PHN2ZyB4bWxucz0iaHR0cDovL3d3dy53My5vcmcvMjAwMC9zdmciIHZlcnNpb249IjEiIHZpZXdCb3g9IjAgMCA0OCA0OCIgZW5hYmxlLWJhY2tncm91bmQ9Im5ldyAwIDAgNDggNDgiPiYjeGE7ICAgIDxyZWN0IHg9IjEzIiB5PSIzMCIgZmlsbD0iI0JGMzYwQyIgd2lkdGg9IjIyIiBoZWlnaHQ9IjEyIi8+JiN4YTsgICAgPGcgZmlsbD0iI0ZGQTcyNiI+JiN4YTsgICAgICAgIDxjaXJjbGUgY3g9IjEwIiBjeT0iMjYiIHI9IjQiLz4mI3hhOyAgICAgICAgPGNpcmNsZSBjeD0iMzgiIGN5PSIyNiIgcj0iNCIvPiYjeGE7ICAgIDwvZz4mI3hhOyAgICA8cGF0aCBmaWxsPSIjRkZCNzREIiBkPSJNMzksMTljMC0xMi43LTMwLTguMy0zMCwwYzAsMS44LDAsOC4yLDAsMTBjMCw4LjMsNi43LDE1LDE1LDE1czE1LTYuNywxNS0xNUMzOSwyNy4yLDM5LDIwLjgsMzksMTl6Ii8+JiN4YTsgICAgPGcgZmlsbD0iIzc4NDcxOSI+JiN4YTsgICAgICAgIDxjaXJjbGUgY3g9IjMwIiBjeT0iMjYiIHI9IjIiLz4mI3hhOyAgICAgICAgPGNpcmNsZSBjeD0iMTgiIGN5PSIyNiIgcj0iMiIvPiYjeGE7ICAgIDwvZz4mI3hhOyAgICA8cGF0aCBmaWxsPSIjRkY1NzIyIiBkPSJNMjQsMkMxNS41LDIsMyw3LjgsMywzNS42TDEzLDQyVjI0bDE2LjgtOS44TDM1LDIxdjIxbDEwLTguMmMwLTUuNi0wLjktMjktMTUuNC0yOUwyOC4yLDJIMjR6Ii8+JiN4YTsgICAgPHBhdGggZmlsbD0iIzc1NzU3NSIgZD0iTTQ1LDI0Yy0wLjYsMC0xLDAuNC0xLDF2LTdjMC04LjgtNy4yLTE2LTE2LTE2aC05Yy0wLjYsMC0xLDAuNC0xLDFzMC40LDEsMSwxaDljNy43LDAsMTQsNi4zLDE0LDE0djEwIGMwLDAuNiwwLjQsMSwxLDFzMS0wLjQsMS0xdjJjMCwzLjktMy4xLDctNyw3SDI0Yy0wLjYsMC0xLDAuNC0xLDFzMC40LDEsMSwxaDEzYzUsMCw5LTQsOS05di01QzQ2LDI0LjQsNDUuNiwyNCw0NSwyNHoiLz4mI3hhOyAgICA8ZyBmaWxsPSIjMzc0NzRGIj4mI3hhOyAgICAgICAgPHBhdGggZD0iTTQ1LDIyaC0xYy0xLjEsMC0yLDAuOS0yLDJ2NGMwLDEuMSwwLjksMiwyLDJoMWMxLjEsMCwyLTAuOSwyLTJ2LTRDNDcsMjIuOSw0Ni4xLDIyLDQ1LDIyeiIvPiYjeGE7ICAgICAgICA8Y2lyY2xlIGN4PSIyNCIgY3k9IjM4IiByPSIyIi8+JiN4YTsgICAgPC9nPiYjeGE7PC9zdmc+;labelBackgroundColor=#ffffff;" parent="1" vertex="1">
          <mxGeometry x="182" y="40" width="48" height="48" as="geometry" />
        </mxCell>
        <mxCell id="leUprxX4UK8Za33vor6V-6" style="edgeStyle=orthogonalEdgeStyle;rounded=0;orthogonalLoop=1;jettySize=auto;html=1;entryX=0;entryY=0.25;entryDx=0;entryDy=0;startArrow=classic;startFill=1;strokeWidth=3;" edge="1" parent="1" source="leUprxX4UK8Za33vor6V-1" target="leUprxX4UK8Za33vor6V-2">
          <mxGeometry relative="1" as="geometry" />
        </mxCell>
        <mxCell id="leUprxX4UK8Za33vor6V-9" value="Channel 2" style="edgeLabel;html=1;align=center;verticalAlign=middle;resizable=0;points=[];fontSize=12;" vertex="1" connectable="0" parent="leUprxX4UK8Za33vor6V-6">
          <mxGeometry x="0.1538" relative="1" as="geometry">
            <mxPoint x="-29" y="-39" as="offset" />
          </mxGeometry>
        </mxCell>
        <mxCell id="leUprxX4UK8Za33vor6V-1" value="Dispatch 2" style="shape=image;verticalLabelPosition=bottom;verticalAlign=top;imageAspect=0;aspect=fixed;image=data:image/svg+xml,PHN2ZyB4bWxucz0iaHR0cDovL3d3dy53My5vcmcvMjAwMC9zdmciIHZlcnNpb249IjEiIHZpZXdCb3g9IjAgMCA0OCA0OCIgZW5hYmxlLWJhY2tncm91bmQ9Im5ldyAwIDAgNDggNDgiPiYjeGE7ICAgIDxnIGZpbGw9IiNGRkE3MjYiPiYjeGE7ICAgICAgICA8Y2lyY2xlIGN4PSIxMCIgY3k9IjI2IiByPSI0Ii8+JiN4YTsgICAgICAgIDxjaXJjbGUgY3g9IjM4IiBjeT0iMjYiIHI9IjQiLz4mI3hhOyAgICA8L2c+JiN4YTsgICAgPHBhdGggZmlsbD0iI0ZGQjc0RCIgZD0iTTM5LDE5YzAtMTIuNy0zMC04LjMtMzAsMGMwLDEuOCwwLDguMiwwLDEwYzAsOC4zLDYuNywxNSwxNSwxNXMxNS02LjcsMTUtMTVDMzksMjcuMiwzOSwyMC44LDM5LDE5eiIvPiYjeGE7ICAgIDxwYXRoIGZpbGw9IiNGRjU3MjIiIGQ9Ik0yNCwzQzE0LjYsMyw3LDEwLjYsNywyMGMwLDEuMiwwLDMuNCwwLDMuNEw5LDI1di0zbDIxLTkuOGw5LDkuOHYzbDItMS42YzAsMCwwLTIuMSwwLTMuNCBDNDEsMTIsMzUuMywzLDI0LDN6Ii8+JiN4YTsgICAgPGcgZmlsbD0iIzc4NDcxOSI+JiN4YTsgICAgICAgIDxjaXJjbGUgY3g9IjMxIiBjeT0iMjYiIHI9IjIiLz4mI3hhOyAgICAgICAgPGNpcmNsZSBjeD0iMTciIGN5PSIyNiIgcj0iMiIvPiYjeGE7ICAgIDwvZz4mI3hhOyAgICA8cGF0aCBmaWxsPSIjNzU3NTc1IiBkPSJNNDMsMjRjLTAuNiwwLTEsMC40LTEsMXYtN2MwLTguOC03LjItMTYtMTYtMTZoLTdjLTAuNiwwLTEsMC40LTEsMXMwLjQsMSwxLDFoN2M3LjcsMCwxNCw2LjMsMTQsMTR2MTAgYzAsMC42LDAuNCwxLDEsMXMxLTAuNCwxLTF2MmMwLDMuOS0zLjEsNy03LDdIMjRjLTAuNiwwLTEsMC40LTEsMXMwLjQsMSwxLDFoMTFjNSwwLDktNCw5LTl2LTVDNDQsMjQuNCw0My42LDI0LDQzLDI0eiIvPiYjeGE7ICAgIDxnIGZpbGw9IiMzNzQ3NEYiPiYjeGE7ICAgICAgICA8cGF0aCBkPSJNNDMsMjJoLTFjLTEuMSwwLTIsMC45LTIsMnY0YzAsMS4xLDAuOSwyLDIsMmgxYzEuMSwwLDItMC45LDItMnYtNEM0NSwyMi45LDQ0LjEsMjIsNDMsMjJ6Ii8+JiN4YTsgICAgICAgIDxjaXJjbGUgY3g9IjI0IiBjeT0iMzgiIHI9IjIiLz4mI3hhOyAgICA8L2c+JiN4YTs8L3N2Zz4=" vertex="1" parent="1">
          <mxGeometry x="182" y="130" width="48" height="48" as="geometry" />
        </mxCell>
        <mxCell id="leUprxX4UK8Za33vor6V-2" value="Room &lt;br&gt;" style="aspect=fixed;perimeter=ellipsePerimeter;html=1;align=center;shadow=0;dashed=0;spacingTop=3;image;image=img/lib/active_directory/web_server.svg;" vertex="1" parent="1">
          <mxGeometry x="392" y="164" width="48" height="60" as="geometry" />
        </mxCell>
        <mxCell id="leUprxX4UK8Za33vor6V-10" style="edgeStyle=orthogonalEdgeStyle;rounded=0;orthogonalLoop=1;jettySize=auto;html=1;entryX=0;entryY=0.75;entryDx=0;entryDy=0;startArrow=classic;startFill=1;strokeWidth=3;" edge="1" parent="1" source="leUprxX4UK8Za33vor6V-12" target="leUprxX4UK8Za33vor6V-2">
          <mxGeometry relative="1" as="geometry">
            <mxPoint x="412" y="304" as="targetPoint" />
            <Array as="points">
              <mxPoint x="332" y="304" />
              <mxPoint x="332" y="207" />
            </Array>
          </mxGeometry>
        </mxCell>
        <mxCell id="leUprxX4UK8Za33vor6V-11" value="Channel 3" style="edgeLabel;html=1;align=center;verticalAlign=middle;resizable=0;points=[];fontSize=12;" vertex="1" connectable="0" parent="leUprxX4UK8Za33vor6V-10">
          <mxGeometry x="0.1538" relative="1" as="geometry">
            <mxPoint x="-40" y="35" as="offset" />
          </mxGeometry>
        </mxCell>
        <mxCell id="leUprxX4UK8Za33vor6V-12" value="Dispatch 3" style="shape=image;verticalLabelPosition=bottom;verticalAlign=top;imageAspect=0;aspect=fixed;image=data:image/svg+xml,PHN2ZyB4bWxucz0iaHR0cDovL3d3dy53My5vcmcvMjAwMC9zdmciIHZlcnNpb249IjEiIHZpZXdCb3g9IjAgMCA0OCA0OCIgZW5hYmxlLWJhY2tncm91bmQ9Im5ldyAwIDAgNDggNDgiPiYjeGE7ICAgIDxnIGZpbGw9IiNGRkE3MjYiPiYjeGE7ICAgICAgICA8Y2lyY2xlIGN4PSIxMCIgY3k9IjI2IiByPSI0Ii8+JiN4YTsgICAgICAgIDxjaXJjbGUgY3g9IjM4IiBjeT0iMjYiIHI9IjQiLz4mI3hhOyAgICA8L2c+JiN4YTsgICAgPHBhdGggZmlsbD0iI0ZGQjc0RCIgZD0iTTM5LDE5YzAtMTIuNy0zMC04LjMtMzAsMGMwLDEuOCwwLDguMiwwLDEwYzAsOC4zLDYuNywxNSwxNSwxNXMxNS02LjcsMTUtMTVDMzksMjcuMiwzOSwyMC44LDM5LDE5eiIvPiYjeGE7ICAgIDxwYXRoIGZpbGw9IiNGRjU3MjIiIGQ9Ik0yNCwzQzE0LjYsMyw3LDEwLjYsNywyMGMwLDEuMiwwLDMuNCwwLDMuNEw5LDI1di0zbDIxLTkuOGw5LDkuOHYzbDItMS42YzAsMCwwLTIuMSwwLTMuNCBDNDEsMTIsMzUuMywzLDI0LDN6Ii8+JiN4YTsgICAgPGcgZmlsbD0iIzc4NDcxOSI+JiN4YTsgICAgICAgIDxjaXJjbGUgY3g9IjMxIiBjeT0iMjYiIHI9IjIiLz4mI3hhOyAgICAgICAgPGNpcmNsZSBjeD0iMTciIGN5PSIyNiIgcj0iMiIvPiYjeGE7ICAgIDwvZz4mI3hhOyAgICA8cGF0aCBmaWxsPSIjNzU3NTc1IiBkPSJNNDMsMjRjLTAuNiwwLTEsMC40LTEsMXYtN2MwLTguOC03LjItMTYtMTYtMTZoLTdjLTAuNiwwLTEsMC40LTEsMXMwLjQsMSwxLDFoN2M3LjcsMCwxNCw2LjMsMTQsMTR2MTAgYzAsMC42LDAuNCwxLDEsMXMxLTAuNCwxLTF2MmMwLDMuOS0zLjEsNy03LDdIMjRjLTAuNiwwLTEsMC40LTEsMXMwLjQsMSwxLDFoMTFjNSwwLDktNCw5LTl2LTVDNDQsMjQuNCw0My42LDI0LDQzLDI0eiIvPiYjeGE7ICAgIDxnIGZpbGw9IiMzNzQ3NEYiPiYjeGE7ICAgICAgICA8cGF0aCBkPSJNNDMsMjJoLTFjLTEuMSwwLTIsMC45LTIsMnY0YzAsMS4xLDAuOSwyLDIsMmgxYzEuMSwwLDItMC45LDItMnYtNEM0NSwyMi45LDQ0LjEsMjIsNDMsMjJ6Ii8+JiN4YTsgICAgICAgIDxjaXJjbGUgY3g9IjI0IiBjeT0iMzgiIHI9IjIiLz4mI3hhOyAgICA8L2c+JiN4YTs8L3N2Zz4=" vertex="1" parent="1">
          <mxGeometry x="182" y="280" width="48" height="48" as="geometry" />
        </mxCell>
        <mxCell id="leUprxX4UK8Za33vor6V-15" style="edgeStyle=orthogonalEdgeStyle;rounded=0;orthogonalLoop=1;jettySize=auto;html=1;entryX=0;entryY=0;entryDx=0;entryDy=0;startArrow=classic;startFill=1;strokeWidth=3;" edge="1" parent="1" source="leUprxX4UK8Za33vor6V-17" target="leUprxX4UK8Za33vor6V-21">
          <mxGeometry relative="1" as="geometry" />
        </mxCell>
        <mxCell id="leUprxX4UK8Za33vor6V-16" value="Channel 1" style="edgeLabel;html=1;align=center;verticalAlign=middle;resizable=0;points=[];fontSize=12;" vertex="1" connectable="0" parent="leUprxX4UK8Za33vor6V-15">
          <mxGeometry x="-0.1016" y="-2" relative="1" as="geometry">
            <mxPoint x="-53" y="14" as="offset" />
          </mxGeometry>
        </mxCell>
        <mxCell id="leUprxX4UK8Za33vor6V-17" value="Dispatch 1" style="shape=image;verticalLabelPosition=bottom;verticalAlign=top;imageAspect=0;aspect=fixed;image=data:image/svg+xml,PHN2ZyB4bWxucz0iaHR0cDovL3d3dy53My5vcmcvMjAwMC9zdmciIHZlcnNpb249IjEiIHZpZXdCb3g9IjAgMCA0OCA0OCIgZW5hYmxlLWJhY2tncm91bmQ9Im5ldyAwIDAgNDggNDgiPiYjeGE7ICAgIDxyZWN0IHg9IjEzIiB5PSIzMCIgZmlsbD0iI0JGMzYwQyIgd2lkdGg9IjIyIiBoZWlnaHQ9IjEyIi8+JiN4YTsgICAgPGcgZmlsbD0iI0ZGQTcyNiI+JiN4YTsgICAgICAgIDxjaXJjbGUgY3g9IjEwIiBjeT0iMjYiIHI9IjQiLz4mI3hhOyAgICAgICAgPGNpcmNsZSBjeD0iMzgiIGN5PSIyNiIgcj0iNCIvPiYjeGE7ICAgIDwvZz4mI3hhOyAgICA8cGF0aCBmaWxsPSIjRkZCNzREIiBkPSJNMzksMTljMC0xMi43LTMwLTguMy0zMCwwYzAsMS44LDAsOC4yLDAsMTBjMCw4LjMsNi43LDE1LDE1LDE1czE1LTYuNywxNS0xNUMzOSwyNy4yLDM5LDIwLjgsMzksMTl6Ii8+JiN4YTsgICAgPGcgZmlsbD0iIzc4NDcxOSI+JiN4YTsgICAgICAgIDxjaXJjbGUgY3g9IjMwIiBjeT0iMjYiIHI9IjIiLz4mI3hhOyAgICAgICAgPGNpcmNsZSBjeD0iMTgiIGN5PSIyNiIgcj0iMiIvPiYjeGE7ICAgIDwvZz4mI3hhOyAgICA8cGF0aCBmaWxsPSIjRkY1NzIyIiBkPSJNMjQsMkMxNS41LDIsMyw3LjgsMywzNS42TDEzLDQyVjI0bDE2LjgtOS44TDM1LDIxdjIxbDEwLTguMmMwLTUuNi0wLjktMjktMTUuNC0yOUwyOC4yLDJIMjR6Ii8+JiN4YTsgICAgPHBhdGggZmlsbD0iIzc1NzU3NSIgZD0iTTQ1LDI0Yy0wLjYsMC0xLDAuNC0xLDF2LTdjMC04LjgtNy4yLTE2LTE2LTE2aC05Yy0wLjYsMC0xLDAuNC0xLDFzMC40LDEsMSwxaDljNy43LDAsMTQsNi4zLDE0LDE0djEwIGMwLDAuNiwwLjQsMSwxLDFzMS0wLjQsMS0xdjJjMCwzLjktMy4xLDctNyw3SDI0Yy0wLjYsMC0xLDAuNC0xLDFzMC40LDEsMSwxaDEzYzUsMCw5LTQsOS05di01QzQ2LDI0LjQsNDUuNiwyNCw0NSwyNHoiLz4mI3hhOyAgICA8ZyBmaWxsPSIjMzc0NzRGIj4mI3hhOyAgICAgICAgPHBhdGggZD0iTTQ1LDIyaC0xYy0xLjEsMC0yLDAuOS0yLDJ2NGMwLDEuMSwwLjksMiwyLDJoMWMxLjEsMCwyLTAuOSwyLTJ2LTRDNDcsMjIuOSw0Ni4xLDIyLDQ1LDIyeiIvPiYjeGE7ICAgICAgICA8Y2lyY2xlIGN4PSIyNCIgY3k9IjM4IiByPSIyIi8+JiN4YTsgICAgPC9nPiYjeGE7PC9zdmc+;labelBackgroundColor=#ffffff;" vertex="1" parent="1">
          <mxGeometry x="400" y="414" width="48" height="48" as="geometry" />
        </mxCell>
        <mxCell id="leUprxX4UK8Za33vor6V-18" style="edgeStyle=orthogonalEdgeStyle;rounded=0;orthogonalLoop=1;jettySize=auto;html=1;entryX=0;entryY=0.5;entryDx=0;entryDy=0;startArrow=classic;startFill=1;strokeWidth=3;" edge="1" parent="1" source="leUprxX4UK8Za33vor6V-20" target="leUprxX4UK8Za33vor6V-21">
          <mxGeometry relative="1" as="geometry" />
        </mxCell>
        <mxCell id="leUprxX4UK8Za33vor6V-19" value="Channel 2" style="edgeLabel;html=1;align=center;verticalAlign=middle;resizable=0;points=[];fontSize=12;" vertex="1" connectable="0" parent="leUprxX4UK8Za33vor6V-18">
          <mxGeometry x="0.1538" relative="1" as="geometry">
            <mxPoint x="-29" y="-16" as="offset" />
          </mxGeometry>
        </mxCell>
        <mxCell id="leUprxX4UK8Za33vor6V-20" value="Dispatch 2" style="shape=image;verticalLabelPosition=bottom;verticalAlign=top;imageAspect=0;aspect=fixed;image=data:image/svg+xml,PHN2ZyB4bWxucz0iaHR0cDovL3d3dy53My5vcmcvMjAwMC9zdmciIHZlcnNpb249IjEiIHZpZXdCb3g9IjAgMCA0OCA0OCIgZW5hYmxlLWJhY2tncm91bmQ9Im5ldyAwIDAgNDggNDgiPiYjeGE7ICAgIDxnIGZpbGw9IiNGRkE3MjYiPiYjeGE7ICAgICAgICA8Y2lyY2xlIGN4PSIxMCIgY3k9IjI2IiByPSI0Ii8+JiN4YTsgICAgICAgIDxjaXJjbGUgY3g9IjM4IiBjeT0iMjYiIHI9IjQiLz4mI3hhOyAgICA8L2c+JiN4YTsgICAgPHBhdGggZmlsbD0iI0ZGQjc0RCIgZD0iTTM5LDE5YzAtMTIuNy0zMC04LjMtMzAsMGMwLDEuOCwwLDguMiwwLDEwYzAsOC4zLDYuNywxNSwxNSwxNXMxNS02LjcsMTUtMTVDMzksMjcuMiwzOSwyMC44LDM5LDE5eiIvPiYjeGE7ICAgIDxwYXRoIGZpbGw9IiNGRjU3MjIiIGQ9Ik0yNCwzQzE0LjYsMyw3LDEwLjYsNywyMGMwLDEuMiwwLDMuNCwwLDMuNEw5LDI1di0zbDIxLTkuOGw5LDkuOHYzbDItMS42YzAsMCwwLTIuMSwwLTMuNCBDNDEsMTIsMzUuMywzLDI0LDN6Ii8+JiN4YTsgICAgPGcgZmlsbD0iIzc4NDcxOSI+JiN4YTsgICAgICAgIDxjaXJjbGUgY3g9IjMxIiBjeT0iMjYiIHI9IjIiLz4mI3hhOyAgICAgICAgPGNpcmNsZSBjeD0iMTciIGN5PSIyNiIgcj0iMiIvPiYjeGE7ICAgIDwvZz4mI3hhOyAgICA8cGF0aCBmaWxsPSIjNzU3NTc1IiBkPSJNNDMsMjRjLTAuNiwwLTEsMC40LTEsMXYtN2MwLTguOC03LjItMTYtMTYtMTZoLTdjLTAuNiwwLTEsMC40LTEsMXMwLjQsMSwxLDFoN2M3LjcsMCwxNCw2LjMsMTQsMTR2MTAgYzAsMC42LDAuNCwxLDEsMXMxLTAuNCwxLTF2MmMwLDMuOS0zLjEsNy03LDdIMjRjLTAuNiwwLTEsMC40LTEsMXMwLjQsMSwxLDFoMTFjNSwwLDktNCw5LTl2LTVDNDQsMjQuNCw0My42LDI0LDQzLDI0eiIvPiYjeGE7ICAgIDxnIGZpbGw9IiMzNzQ3NEYiPiYjeGE7ICAgICAgICA8cGF0aCBkPSJNNDMsMjJoLTFjLTEuMSwwLTIsMC45LTIsMnY0YzAsMS4xLDAuOSwyLDIsMmgxYzEuMSwwLDItMC45LDItMnYtNEM0NSwyMi45LDQ0LjEsMjIsNDMsMjJ6Ii8+JiN4YTsgICAgICAgIDxjaXJjbGUgY3g9IjI0IiBjeT0iMzgiIHI9IjIiLz4mI3hhOyAgICA8L2c+JiN4YTs8L3N2Zz4=" vertex="1" parent="1">
          <mxGeometry x="400" y="544" width="48" height="48" as="geometry" />
        </mxCell>
        <mxCell id="leUprxX4UK8Za33vor6V-21" value="Room &lt;br&gt;ALL Truck Sessions" style="aspect=fixed;perimeter=ellipsePerimeter;html=1;align=center;shadow=0;dashed=0;spacingTop=3;image;image=img/lib/active_directory/web_server.svg;" vertex="1" parent="1">
          <mxGeometry x="620" y="538" width="48" height="60" as="geometry" />
        </mxCell>
        <mxCell id="leUprxX4UK8Za33vor6V-22" style="edgeStyle=orthogonalEdgeStyle;rounded=0;orthogonalLoop=1;jettySize=auto;html=1;startArrow=classic;startFill=1;strokeWidth=1;entryX=0;entryY=0.5;entryDx=0;entryDy=0;exitX=1;exitY=0.5;exitDx=0;exitDy=0;" edge="1" parent="1" source="leUprxX4UK8Za33vor6V-24" target="leUprxX4UK8Za33vor6V-25">
          <mxGeometry relative="1" as="geometry">
            <mxPoint x="612" y="644" as="targetPoint" />
            <Array as="points">
              <mxPoint x="522" y="700" />
              <mxPoint x="522" y="700" />
            </Array>
          </mxGeometry>
        </mxCell>
        <mxCell id="leUprxX4UK8Za33vor6V-23" value="Channel 3" style="edgeLabel;html=1;align=center;verticalAlign=middle;resizable=0;points=[];fontSize=12;" vertex="1" connectable="0" parent="leUprxX4UK8Za33vor6V-22">
          <mxGeometry x="0.1538" relative="1" as="geometry">
            <mxPoint x="-27" y="-10" as="offset" />
          </mxGeometry>
        </mxCell>
        <mxCell id="leUprxX4UK8Za33vor6V-24" value="Dispatch 3" style="shape=image;verticalLabelPosition=bottom;verticalAlign=top;imageAspect=0;aspect=fixed;image=data:image/svg+xml,PHN2ZyB4bWxucz0iaHR0cDovL3d3dy53My5vcmcvMjAwMC9zdmciIHZlcnNpb249IjEiIHZpZXdCb3g9IjAgMCA0OCA0OCIgZW5hYmxlLWJhY2tncm91bmQ9Im5ldyAwIDAgNDggNDgiPiYjeGE7ICAgIDxnIGZpbGw9IiNGRkE3MjYiPiYjeGE7ICAgICAgICA8Y2lyY2xlIGN4PSIxMCIgY3k9IjI2IiByPSI0Ii8+JiN4YTsgICAgICAgIDxjaXJjbGUgY3g9IjM4IiBjeT0iMjYiIHI9IjQiLz4mI3hhOyAgICA8L2c+JiN4YTsgICAgPHBhdGggZmlsbD0iI0ZGQjc0RCIgZD0iTTM5LDE5YzAtMTIuNy0zMC04LjMtMzAsMGMwLDEuOCwwLDguMiwwLDEwYzAsOC4zLDYuNywxNSwxNSwxNXMxNS02LjcsMTUtMTVDMzksMjcuMiwzOSwyMC44LDM5LDE5eiIvPiYjeGE7ICAgIDxwYXRoIGZpbGw9IiNGRjU3MjIiIGQ9Ik0yNCwzQzE0LjYsMyw3LDEwLjYsNywyMGMwLDEuMiwwLDMuNCwwLDMuNEw5LDI1di0zbDIxLTkuOGw5LDkuOHYzbDItMS42YzAsMCwwLTIuMSwwLTMuNCBDNDEsMTIsMzUuMywzLDI0LDN6Ii8+JiN4YTsgICAgPGcgZmlsbD0iIzc4NDcxOSI+JiN4YTsgICAgICAgIDxjaXJjbGUgY3g9IjMxIiBjeT0iMjYiIHI9IjIiLz4mI3hhOyAgICAgICAgPGNpcmNsZSBjeD0iMTciIGN5PSIyNiIgcj0iMiIvPiYjeGE7ICAgIDwvZz4mI3hhOyAgICA8cGF0aCBmaWxsPSIjNzU3NTc1IiBkPSJNNDMsMjRjLTAuNiwwLTEsMC40LTEsMXYtN2MwLTguOC03LjItMTYtMTYtMTZoLTdjLTAuNiwwLTEsMC40LTEsMXMwLjQsMSwxLDFoN2M3LjcsMCwxNCw2LjMsMTQsMTR2MTAgYzAsMC42LDAuNCwxLDEsMXMxLTAuNCwxLTF2MmMwLDMuOS0zLjEsNy03LDdIMjRjLTAuNiwwLTEsMC40LTEsMXMwLjQsMSwxLDFoMTFjNSwwLDktNCw5LTl2LTVDNDQsMjQuNCw0My42LDI0LDQzLDI0eiIvPiYjeGE7ICAgIDxnIGZpbGw9IiMzNzQ3NEYiPiYjeGE7ICAgICAgICA8cGF0aCBkPSJNNDMsMjJoLTFjLTEuMSwwLTIsMC45LTIsMnY0YzAsMS4xLDAuOSwyLDIsMmgxYzEuMSwwLDItMC45LDItMnYtNEM0NSwyMi45LDQ0LjEsMjIsNDMsMjJ6Ii8+JiN4YTsgICAgICAgIDxjaXJjbGUgY3g9IjI0IiBjeT0iMzgiIHI9IjIiLz4mI3hhOyAgICA8L2c+JiN4YTs8L3N2Zz4=" vertex="1" parent="1">
          <mxGeometry x="392" y="676" width="48" height="48" as="geometry" />
        </mxCell>
        <mxCell id="leUprxX4UK8Za33vor6V-25" value="Room &lt;br&gt;Specific Truck Sessions" style="aspect=fixed;perimeter=ellipsePerimeter;html=1;align=center;shadow=0;dashed=0;spacingTop=3;image;image=img/lib/active_directory/web_server.svg;" vertex="1" parent="1">
          <mxGeometry x="612" y="670" width="48" height="60" as="geometry" />
        </mxCell>
        <mxCell id="leUprxX4UK8Za33vor6V-26" style="edgeStyle=orthogonalEdgeStyle;rounded=0;orthogonalLoop=1;jettySize=auto;html=1;entryX=0;entryY=0;entryDx=0;entryDy=0;startArrow=classic;startFill=1;strokeWidth=3;" edge="1" parent="1" source="leUprxX4UK8Za33vor6V-28" target="leUprxX4UK8Za33vor6V-32">
          <mxGeometry relative="1" as="geometry" />
        </mxCell>
        <mxCell id="leUprxX4UK8Za33vor6V-27" value="Channel 1" style="edgeLabel;html=1;align=center;verticalAlign=middle;resizable=0;points=[];fontSize=12;" vertex="1" connectable="0" parent="leUprxX4UK8Za33vor6V-26">
          <mxGeometry x="-0.1016" y="-2" relative="1" as="geometry">
            <mxPoint x="-63" y="6" as="offset" />
          </mxGeometry>
        </mxCell>
        <mxCell id="leUprxX4UK8Za33vor6V-28" value="Dispatch 1" style="shape=image;verticalLabelPosition=bottom;verticalAlign=top;imageAspect=0;aspect=fixed;image=data:image/svg+xml,PHN2ZyB4bWxucz0iaHR0cDovL3d3dy53My5vcmcvMjAwMC9zdmciIHZlcnNpb249IjEiIHZpZXdCb3g9IjAgMCA0OCA0OCIgZW5hYmxlLWJhY2tncm91bmQ9Im5ldyAwIDAgNDggNDgiPiYjeGE7ICAgIDxyZWN0IHg9IjEzIiB5PSIzMCIgZmlsbD0iI0JGMzYwQyIgd2lkdGg9IjIyIiBoZWlnaHQ9IjEyIi8+JiN4YTsgICAgPGcgZmlsbD0iI0ZGQTcyNiI+JiN4YTsgICAgICAgIDxjaXJjbGUgY3g9IjEwIiBjeT0iMjYiIHI9IjQiLz4mI3hhOyAgICAgICAgPGNpcmNsZSBjeD0iMzgiIGN5PSIyNiIgcj0iNCIvPiYjeGE7ICAgIDwvZz4mI3hhOyAgICA8cGF0aCBmaWxsPSIjRkZCNzREIiBkPSJNMzksMTljMC0xMi43LTMwLTguMy0zMCwwYzAsMS44LDAsOC4yLDAsMTBjMCw4LjMsNi43LDE1LDE1LDE1czE1LTYuNywxNS0xNUMzOSwyNy4yLDM5LDIwLjgsMzksMTl6Ii8+JiN4YTsgICAgPGcgZmlsbD0iIzc4NDcxOSI+JiN4YTsgICAgICAgIDxjaXJjbGUgY3g9IjMwIiBjeT0iMjYiIHI9IjIiLz4mI3hhOyAgICAgICAgPGNpcmNsZSBjeD0iMTgiIGN5PSIyNiIgcj0iMiIvPiYjeGE7ICAgIDwvZz4mI3hhOyAgICA8cGF0aCBmaWxsPSIjRkY1NzIyIiBkPSJNMjQsMkMxNS41LDIsMyw3LjgsMywzNS42TDEzLDQyVjI0bDE2LjgtOS44TDM1LDIxdjIxbDEwLTguMmMwLTUuNi0wLjktMjktMTUuNC0yOUwyOC4yLDJIMjR6Ii8+JiN4YTsgICAgPHBhdGggZmlsbD0iIzc1NzU3NSIgZD0iTTQ1LDI0Yy0wLjYsMC0xLDAuNC0xLDF2LTdjMC04LjgtNy4yLTE2LTE2LTE2aC05Yy0wLjYsMC0xLDAuNC0xLDFzMC40LDEsMSwxaDljNy43LDAsMTQsNi4zLDE0LDE0djEwIGMwLDAuNiwwLjQsMSwxLDFzMS0wLjQsMS0xdjJjMCwzLjktMy4xLDctNyw3SDI0Yy0wLjYsMC0xLDAuNC0xLDFzMC40LDEsMSwxaDEzYzUsMCw5LTQsOS05di01QzQ2LDI0LjQsNDUuNiwyNCw0NSwyNHoiLz4mI3hhOyAgICA8ZyBmaWxsPSIjMzc0NzRGIj4mI3hhOyAgICAgICAgPHBhdGggZD0iTTQ1LDIyaC0xYy0xLjEsMC0yLDAuOS0yLDJ2NGMwLDEuMSwwLjksMiwyLDJoMWMxLjEsMCwyLTAuOSwyLTJ2LTRDNDcsMjIuOSw0Ni4xLDIyLDQ1LDIyeiIvPiYjeGE7ICAgICAgICA8Y2lyY2xlIGN4PSIyNCIgY3k9IjM4IiByPSIyIi8+JiN4YTsgICAgPC9nPiYjeGE7PC9zdmc+;labelBackgroundColor=#ffffff;" vertex="1" parent="1">
          <mxGeometry x="760" y="40" width="48" height="48" as="geometry" />
        </mxCell>
        <mxCell id="leUprxX4UK8Za33vor6V-29" style="edgeStyle=orthogonalEdgeStyle;rounded=0;orthogonalLoop=1;jettySize=auto;html=1;entryX=0;entryY=0.25;entryDx=0;entryDy=0;startArrow=classic;startFill=1;strokeWidth=3;" edge="1" parent="1" source="leUprxX4UK8Za33vor6V-31" target="leUprxX4UK8Za33vor6V-32">
          <mxGeometry relative="1" as="geometry" />
        </mxCell>
        <mxCell id="leUprxX4UK8Za33vor6V-30" value="Channel 2" style="edgeLabel;html=1;align=center;verticalAlign=middle;resizable=0;points=[];fontSize=12;" vertex="1" connectable="0" parent="leUprxX4UK8Za33vor6V-29">
          <mxGeometry x="0.1538" relative="1" as="geometry">
            <mxPoint x="-29" y="-39" as="offset" />
          </mxGeometry>
        </mxCell>
        <mxCell id="leUprxX4UK8Za33vor6V-31" value="Dispatch 2" style="shape=image;verticalLabelPosition=bottom;verticalAlign=top;imageAspect=0;aspect=fixed;image=data:image/svg+xml,PHN2ZyB4bWxucz0iaHR0cDovL3d3dy53My5vcmcvMjAwMC9zdmciIHZlcnNpb249IjEiIHZpZXdCb3g9IjAgMCA0OCA0OCIgZW5hYmxlLWJhY2tncm91bmQ9Im5ldyAwIDAgNDggNDgiPiYjeGE7ICAgIDxnIGZpbGw9IiNGRkE3MjYiPiYjeGE7ICAgICAgICA8Y2lyY2xlIGN4PSIxMCIgY3k9IjI2IiByPSI0Ii8+JiN4YTsgICAgICAgIDxjaXJjbGUgY3g9IjM4IiBjeT0iMjYiIHI9IjQiLz4mI3hhOyAgICA8L2c+JiN4YTsgICAgPHBhdGggZmlsbD0iI0ZGQjc0RCIgZD0iTTM5LDE5YzAtMTIuNy0zMC04LjMtMzAsMGMwLDEuOCwwLDguMiwwLDEwYzAsOC4zLDYuNywxNSwxNSwxNXMxNS02LjcsMTUtMTVDMzksMjcuMiwzOSwyMC44LDM5LDE5eiIvPiYjeGE7ICAgIDxwYXRoIGZpbGw9IiNGRjU3MjIiIGQ9Ik0yNCwzQzE0LjYsMyw3LDEwLjYsNywyMGMwLDEuMiwwLDMuNCwwLDMuNEw5LDI1di0zbDIxLTkuOGw5LDkuOHYzbDItMS42YzAsMCwwLTIuMSwwLTMuNCBDNDEsMTIsMzUuMywzLDI0LDN6Ii8+JiN4YTsgICAgPGcgZmlsbD0iIzc4NDcxOSI+JiN4YTsgICAgICAgIDxjaXJjbGUgY3g9IjMxIiBjeT0iMjYiIHI9IjIiLz4mI3hhOyAgICAgICAgPGNpcmNsZSBjeD0iMTciIGN5PSIyNiIgcj0iMiIvPiYjeGE7ICAgIDwvZz4mI3hhOyAgICA8cGF0aCBmaWxsPSIjNzU3NTc1IiBkPSJNNDMsMjRjLTAuNiwwLTEsMC40LTEsMXYtN2MwLTguOC03LjItMTYtMTYtMTZoLTdjLTAuNiwwLTEsMC40LTEsMXMwLjQsMSwxLDFoN2M3LjcsMCwxNCw2LjMsMTQsMTR2MTAgYzAsMC42LDAuNCwxLDEsMXMxLTAuNCwxLTF2MmMwLDMuOS0zLjEsNy03LDdIMjRjLTAuNiwwLTEsMC40LTEsMXMwLjQsMSwxLDFoMTFjNSwwLDktNCw5LTl2LTVDNDQsMjQuNCw0My42LDI0LDQzLDI0eiIvPiYjeGE7ICAgIDxnIGZpbGw9IiMzNzQ3NEYiPiYjeGE7ICAgICAgICA8cGF0aCBkPSJNNDMsMjJoLTFjLTEuMSwwLTIsMC45LTIsMnY0YzAsMS4xLDAuOSwyLDIsMmgxYzEuMSwwLDItMC45LDItMnYtNEM0NSwyMi45LDQ0LjEsMjIsNDMsMjJ6Ii8+JiN4YTsgICAgICAgIDxjaXJjbGUgY3g9IjI0IiBjeT0iMzgiIHI9IjIiLz4mI3hhOyAgICA8L2c+JiN4YTs8L3N2Zz4=" vertex="1" parent="1">
          <mxGeometry x="760" y="130" width="48" height="48" as="geometry" />
        </mxCell>
        <mxCell id="leUprxX4UK8Za33vor6V-32" value="Room &lt;br&gt;" style="aspect=fixed;perimeter=ellipsePerimeter;html=1;align=center;shadow=0;dashed=0;spacingTop=3;image;image=img/lib/active_directory/web_server.svg;" vertex="1" parent="1">
          <mxGeometry x="970" y="164" width="48" height="60" as="geometry" />
        </mxCell>
        <mxCell id="leUprxX4UK8Za33vor6V-33" style="edgeStyle=orthogonalEdgeStyle;rounded=0;orthogonalLoop=1;jettySize=auto;html=1;entryX=0;entryY=0.75;entryDx=0;entryDy=0;startArrow=classic;startFill=1;strokeWidth=1;" edge="1" parent="1" source="leUprxX4UK8Za33vor6V-35" target="leUprxX4UK8Za33vor6V-32">
          <mxGeometry relative="1" as="geometry">
            <mxPoint x="972.5337474160019" y="190.41640786499875" as="targetPoint" />
            <Array as="points">
              <mxPoint x="910" y="287" />
              <mxPoint x="910" y="207" />
            </Array>
          </mxGeometry>
        </mxCell>
        <mxCell id="leUprxX4UK8Za33vor6V-34" value="Channel 3" style="edgeLabel;html=1;align=center;verticalAlign=middle;resizable=0;points=[];fontSize=12;" vertex="1" connectable="0" parent="leUprxX4UK8Za33vor6V-33">
          <mxGeometry x="0.1538" relative="1" as="geometry">
            <mxPoint x="-40" y="35" as="offset" />
          </mxGeometry>
        </mxCell>
        <mxCell id="leUprxX4UK8Za33vor6V-35" value="Dispatch 3" style="shape=image;verticalLabelPosition=bottom;verticalAlign=top;imageAspect=0;aspect=fixed;image=data:image/svg+xml,PHN2ZyB4bWxucz0iaHR0cDovL3d3dy53My5vcmcvMjAwMC9zdmciIHZlcnNpb249IjEiIHZpZXdCb3g9IjAgMCA0OCA0OCIgZW5hYmxlLWJhY2tncm91bmQ9Im5ldyAwIDAgNDggNDgiPiYjeGE7ICAgIDxnIGZpbGw9IiNGRkE3MjYiPiYjeGE7ICAgICAgICA8Y2lyY2xlIGN4PSIxMCIgY3k9IjI2IiByPSI0Ii8+JiN4YTsgICAgICAgIDxjaXJjbGUgY3g9IjM4IiBjeT0iMjYiIHI9IjQiLz4mI3hhOyAgICA8L2c+JiN4YTsgICAgPHBhdGggZmlsbD0iI0ZGQjc0RCIgZD0iTTM5LDE5YzAtMTIuNy0zMC04LjMtMzAsMGMwLDEuOCwwLDguMiwwLDEwYzAsOC4zLDYuNywxNSwxNSwxNXMxNS02LjcsMTUtMTVDMzksMjcuMiwzOSwyMC44LDM5LDE5eiIvPiYjeGE7ICAgIDxwYXRoIGZpbGw9IiNGRjU3MjIiIGQ9Ik0yNCwzQzE0LjYsMyw3LDEwLjYsNywyMGMwLDEuMiwwLDMuNCwwLDMuNEw5LDI1di0zbDIxLTkuOGw5LDkuOHYzbDItMS42YzAsMCwwLTIuMSwwLTMuNCBDNDEsMTIsMzUuMywzLDI0LDN6Ii8+JiN4YTsgICAgPGcgZmlsbD0iIzc4NDcxOSI+JiN4YTsgICAgICAgIDxjaXJjbGUgY3g9IjMxIiBjeT0iMjYiIHI9IjIiLz4mI3hhOyAgICAgICAgPGNpcmNsZSBjeD0iMTciIGN5PSIyNiIgcj0iMiIvPiYjeGE7ICAgIDwvZz4mI3hhOyAgICA8cGF0aCBmaWxsPSIjNzU3NTc1IiBkPSJNNDMsMjRjLTAuNiwwLTEsMC40LTEsMXYtN2MwLTguOC03LjItMTYtMTYtMTZoLTdjLTAuNiwwLTEsMC40LTEsMXMwLjQsMSwxLDFoN2M3LjcsMCwxNCw2LjMsMTQsMTR2MTAgYzAsMC42LDAuNCwxLDEsMXMxLTAuNCwxLTF2MmMwLDMuOS0zLjEsNy03LDdIMjRjLTAuNiwwLTEsMC40LTEsMXMwLjQsMSwxLDFoMTFjNSwwLDktNCw5LTl2LTVDNDQsMjQuNCw0My42LDI0LDQzLDI0eiIvPiYjeGE7ICAgIDxnIGZpbGw9IiMzNzQ3NEYiPiYjeGE7ICAgICAgICA8cGF0aCBkPSJNNDMsMjJoLTFjLTEuMSwwLTIsMC45LTIsMnY0YzAsMS4xLDAuOSwyLDIsMmgxYzEuMSwwLDItMC45LDItMnYtNEM0NSwyMi45LDQ0LjEsMjIsNDMsMjJ6Ii8+JiN4YTsgICAgICAgIDxjaXJjbGUgY3g9IjI0IiBjeT0iMzgiIHI9IjIiLz4mI3hhOyAgICA8L2c+JiN4YTs8L3N2Zz4=" vertex="1" parent="1">
          <mxGeometry x="760" y="263" width="48" height="48" as="geometry" />
        </mxCell>
        <mxCell id="leUprxX4UK8Za33vor6V-37" style="edgeStyle=orthogonalEdgeStyle;rounded=0;orthogonalLoop=1;jettySize=auto;html=1;exitX=0;exitY=0.25;exitDx=0;exitDy=0;entryX=0;entryY=0.75;entryDx=0;entryDy=0;fontSize=12;startArrow=classic;startFill=1;strokeWidth=1;" edge="1" parent="1" source="leUprxX4UK8Za33vor6V-35" target="leUprxX4UK8Za33vor6V-35">
          <mxGeometry relative="1" as="geometry">
            <Array as="points">
              <mxPoint x="660" y="275" />
              <mxPoint x="660" y="299" />
            </Array>
          </mxGeometry>
        </mxCell>
        <mxCell id="leUprxX4UK8Za33vor6V-38" value="AJAX&lt;br&gt;Back to list view" style="edgeLabel;html=1;align=center;verticalAlign=middle;resizable=0;points=[];fontSize=12;" vertex="1" connectable="0" parent="leUprxX4UK8Za33vor6V-37">
          <mxGeometry x="-0.3393" y="1" relative="1" as="geometry">
            <mxPoint x="-74" y="11" as="offset" />
          </mxGeometry>
        </mxCell>
        <mxCell id="leUprxX4UK8Za33vor6V-39" style="edgeStyle=orthogonalEdgeStyle;rounded=0;orthogonalLoop=1;jettySize=auto;html=1;fontSize=12;startArrow=classic;startFill=1;strokeWidth=1;entryX=0;entryY=0.75;entryDx=0;entryDy=0;" edge="1" parent="1" source="leUprxX4UK8Za33vor6V-24" target="leUprxX4UK8Za33vor6V-24">
          <mxGeometry relative="1" as="geometry">
            <mxPoint x="392" y="688" as="sourcePoint" />
            <mxPoint x="400" y="712" as="targetPoint" />
            <Array as="points">
              <mxPoint x="292" y="688" />
              <mxPoint x="292" y="712" />
            </Array>
          </mxGeometry>
        </mxCell>
        <mxCell id="leUprxX4UK8Za33vor6V-40" value="AJAX&lt;br&gt;Back to list view" style="edgeLabel;html=1;align=center;verticalAlign=middle;resizable=0;points=[];fontSize=12;" vertex="1" connectable="0" parent="leUprxX4UK8Za33vor6V-39">
          <mxGeometry x="-0.3393" y="1" relative="1" as="geometry">
            <mxPoint x="-74" y="11" as="offset" />
          </mxGeometry>
        </mxCell>
        <mxCell id="leUprxX4UK8Za33vor6V-44" value="&lt;ol style=&quot;line-height: 150%&quot;&gt;&lt;li&gt;Perf issue particularly on list view&lt;/li&gt;&lt;li&gt;Decrease FE calculation&lt;/li&gt;&lt;/ol&gt;" style="text;html=1;strokeColor=none;fillColor=none;align=left;verticalAlign=middle;whiteSpace=wrap;rounded=0;fontSize=12;" vertex="1" parent="1">
          <mxGeometry x="840" y="442" width="280" height="118" as="geometry" />
        </mxCell>
      </root>
    </mxGraphModel>
  </diagram>
</mxfile>
